<svg width="91" height="34" viewBox="0 0 91 34" fill="none" xmlns="http://www.w3.org/2000/svg">
<path d="M0 0H4.104V9.504H4.176C4.464 9.048 4.812 8.64 5.22 8.28C5.628 7.92 6.072 7.62 6.552 7.38C7.056 7.116 7.572 6.924 8.1 6.804C8.652 6.66 9.192 6.588 9.72 6.588C11.184 6.588 12.456 6.852 13.536 7.38C14.64 7.884 15.552 8.592 16.272 9.504C16.992 10.392 17.532 11.436 17.892 12.636C18.252 13.836 18.432 15.12 18.432 16.488C18.432 17.736 18.264 18.948 17.928 20.124C17.616 21.3 17.124 22.344 16.452 23.256C15.804 24.144 14.976 24.864 13.968 25.416C12.96 25.944 11.772 26.208 10.404 26.208C9.78 26.208 9.144 26.16 8.496 26.064C7.872 25.992 7.272 25.836 6.696 25.596C6.12 25.356 5.592 25.044 5.112 24.66C4.656 24.276 4.272 23.772 3.96 23.148H3.888V25.704H0V0ZM14.328 16.416C14.328 15.576 14.22 14.76 14.004 13.968C13.788 13.176 13.464 12.48 13.032 11.88C12.6 11.256 12.06 10.764 11.412 10.404C10.764 10.02 10.02 9.828 9.18 9.828C7.452 9.828 6.144 10.428 5.256 11.628C4.392 12.828 3.96 14.424 3.96 16.416C3.96 17.352 4.068 18.228 4.284 19.044C4.524 19.836 4.872 20.52 5.328 21.096C5.784 21.672 6.324 22.128 6.948 22.464C7.596 22.8 8.34 22.968 9.18 22.968C10.116 22.968 10.908 22.776 11.556 22.392C12.204 22.008 12.732 21.516 13.14 20.916C13.572 20.292 13.872 19.596 14.04 18.828C14.232 18.036 14.328 17.232 14.328 16.416Z" fill="black"/>
<path d="M29.9318 26.208C28.4438 26.208 27.1118 25.968 25.9358 25.488C24.7838 24.984 23.7998 24.3 22.9838 23.436C22.1918 22.572 21.5798 21.54 21.1478 20.34C20.7398 19.14 20.5358 17.82 20.5358 16.38C20.5358 14.964 20.7398 13.656 21.1478 12.456C21.5798 11.256 22.1918 10.224 22.9838 9.36C23.7998 8.496 24.7838 7.824 25.9358 7.344C27.1118 6.84 28.4438 6.588 29.9318 6.588C31.4198 6.588 32.7398 6.84 33.8918 7.344C35.0678 7.824 36.0518 8.496 36.8438 9.36C37.6598 10.224 38.2718 11.256 38.6798 12.456C39.1118 13.656 39.3278 14.964 39.3278 16.38C39.3278 17.82 39.1118 19.14 38.6798 20.34C38.2718 21.54 37.6598 22.572 36.8438 23.436C36.0518 24.3 35.0678 24.984 33.8918 25.488C32.7398 25.968 31.4198 26.208 29.9318 26.208ZM29.9318 22.968C30.8438 22.968 31.6358 22.776 32.3078 22.392C32.9798 22.008 33.5318 21.504 33.9638 20.88C34.3958 20.256 34.7078 19.56 34.8998 18.792C35.1158 18 35.2238 17.196 35.2238 16.38C35.2238 15.588 35.1158 14.796 34.8998 14.004C34.7078 13.212 34.3958 12.516 33.9638 11.916C33.5318 11.292 32.9798 10.788 32.3078 10.404C31.6358 10.02 30.8438 9.828 29.9318 9.828C29.0198 9.828 28.2278 10.02 27.5558 10.404C26.8838 10.788 26.3318 11.292 25.8998 11.916C25.4678 12.516 25.1438 13.212 24.9278 14.004C24.7358 14.796 24.6398 15.588 24.6398 16.38C24.6398 17.196 24.7358 18 24.9278 18.792C25.1438 19.56 25.4678 20.256 25.8998 20.88C26.3318 21.504 26.8838 22.008 27.5558 22.392C28.2278 22.776 29.0198 22.968 29.9318 22.968Z" fill="black"/>
<path d="M40.1877 7.092H44.6877L49.5477 20.988H49.6197L54.3357 7.092H58.6197L51.3837 26.712C51.0477 27.552 50.7117 28.356 50.3757 29.124C50.0637 29.892 49.6677 30.564 49.1877 31.14C48.7317 31.74 48.1557 32.208 47.4597 32.544C46.7637 32.904 45.8757 33.084 44.7957 33.084C43.8357 33.084 42.8877 33.012 41.9517 32.868V29.412C42.2877 29.46 42.6117 29.508 42.9237 29.556C43.2357 29.628 43.5597 29.664 43.8957 29.664C44.3757 29.664 44.7717 29.604 45.0837 29.484C45.3957 29.364 45.6477 29.184 45.8397 28.944C46.0557 28.728 46.2357 28.464 46.3797 28.152C46.5237 27.84 46.6557 27.48 46.7757 27.072L47.2437 25.632L40.1877 7.092Z" fill="black"/>
<path d="M73.1876 14.76C73.1396 14.112 72.9956 13.488 72.7556 12.888C72.5396 12.288 72.2276 11.772 71.8196 11.34C71.4356 10.884 70.9556 10.524 70.3796 10.26C69.8276 9.972 69.2036 9.828 68.5076 9.828C67.7876 9.828 67.1276 9.96 66.5276 10.224C65.9516 10.464 65.4476 10.812 65.0156 11.268C64.6076 11.7 64.2716 12.216 64.0076 12.816C63.7676 13.416 63.6356 14.064 63.6116 14.76H73.1876ZM63.6116 17.46C63.6116 18.18 63.7076 18.876 63.8996 19.548C64.1156 20.22 64.4276 20.808 64.8356 21.312C65.2436 21.816 65.7596 22.224 66.3836 22.536C67.0076 22.824 67.7516 22.968 68.6156 22.968C69.8156 22.968 70.7756 22.716 71.4956 22.212C72.2396 21.684 72.7916 20.904 73.1516 19.872H77.0396C76.8236 20.88 76.4516 21.78 75.9236 22.572C75.3956 23.364 74.7596 24.036 74.0156 24.588C73.2716 25.116 72.4316 25.512 71.4956 25.776C70.5836 26.064 69.6236 26.208 68.6156 26.208C67.1516 26.208 65.8556 25.968 64.7276 25.488C63.5996 25.008 62.6396 24.336 61.8476 23.472C61.0796 22.608 60.4916 21.576 60.0836 20.376C59.6996 19.176 59.5076 17.856 59.5076 16.416C59.5076 15.096 59.7116 13.848 60.1196 12.672C60.5516 11.472 61.1516 10.428 61.9196 9.54C62.7116 8.628 63.6596 7.908 64.7636 7.38C65.8676 6.852 67.1156 6.588 68.5076 6.588C69.9716 6.588 71.2796 6.9 72.4316 7.524C73.6076 8.124 74.5796 8.928 75.3476 9.936C76.1156 10.944 76.6676 12.108 77.0036 13.428C77.3636 14.724 77.4596 16.068 77.2916 17.46H63.6116Z" fill="black"/>
<path d="M79.9115 7.092H83.7635V10.692H83.8355C83.9555 10.188 84.1835 9.696 84.5195 9.216C84.8795 8.736 85.2995 8.304 85.7795 7.92C86.2835 7.512 86.8355 7.188 87.4355 6.948C88.0355 6.708 88.6475 6.588 89.2715 6.588C89.7515 6.588 90.0755 6.6 90.2435 6.624C90.4355 6.648 90.6275 6.672 90.8195 6.696V10.656C90.5315 10.608 90.2315 10.572 89.9195 10.548C89.6315 10.5 89.3435 10.476 89.0555 10.476C88.3595 10.476 87.6995 10.62 87.0755 10.908C86.4755 11.172 85.9475 11.58 85.4915 12.132C85.0355 12.66 84.6755 13.32 84.4115 14.112C84.1475 14.904 84.0155 15.816 84.0155 16.848V25.704H79.9115V7.092Z" fill="black"/>
</svg>
