<svg width="120" height="27" viewBox="0 0 120 27" fill="none" xmlns="http://www.w3.org/2000/svg">
<path d="M0 7.092H3.888V9.684H3.996C4.308 9.228 4.644 8.808 5.004 8.424C5.364 8.04 5.76 7.716 6.192 7.452C6.648 7.188 7.164 6.984 7.74 6.84C8.316 6.672 8.976 6.588 9.72 6.588C10.848 6.588 11.892 6.84 12.852 7.344C13.836 7.848 14.532 8.628 14.94 9.684C15.636 8.724 16.44 7.968 17.352 7.416C18.264 6.864 19.404 6.588 20.772 6.588C22.74 6.588 24.264 7.068 25.344 8.028C26.448 8.988 27 10.596 27 12.852V25.704H22.896V14.832C22.896 14.088 22.872 13.416 22.824 12.816C22.776 12.192 22.632 11.664 22.392 11.232C22.176 10.776 21.84 10.428 21.384 10.188C20.928 9.948 20.304 9.828 19.512 9.828C18.12 9.828 17.112 10.26 16.488 11.124C15.864 11.988 15.552 13.212 15.552 14.796V25.704H11.448V13.752C11.448 12.456 11.208 11.484 10.728 10.836C10.272 10.164 9.42 9.828 8.172 9.828C7.644 9.828 7.128 9.936 6.624 10.152C6.144 10.368 5.712 10.68 5.328 11.088C4.968 11.496 4.668 12 4.428 12.6C4.212 13.2 4.104 13.884 4.104 14.652V25.704H0V7.092Z" fill="black"/>
<path d="M46.4122 21.564C46.4122 22.068 46.4722 22.428 46.5922 22.644C46.7362 22.86 47.0002 22.968 47.3842 22.968C47.5042 22.968 47.6482 22.968 47.8162 22.968C47.9842 22.968 48.1762 22.944 48.3922 22.896V25.74C48.2482 25.788 48.0562 25.836 47.8162 25.884C47.6002 25.956 47.3722 26.016 47.1322 26.064C46.8922 26.112 46.6522 26.148 46.4122 26.172C46.1722 26.196 45.9682 26.208 45.8002 26.208C44.9602 26.208 44.2642 26.04 43.7122 25.704C43.1602 25.368 42.8002 24.78 42.6322 23.94C41.8162 24.732 40.8082 25.308 39.6082 25.668C38.4322 26.028 37.2922 26.208 36.1882 26.208C35.3482 26.208 34.5442 26.088 33.7762 25.848C33.0082 25.632 32.3242 25.308 31.7242 24.876C31.1482 24.42 30.6802 23.856 30.3202 23.184C29.9842 22.488 29.8162 21.684 29.8162 20.772C29.8162 19.62 30.0202 18.684 30.4282 17.964C30.8602 17.244 31.4122 16.68 32.0842 16.272C32.7802 15.864 33.5482 15.576 34.3882 15.408C35.2522 15.216 36.1162 15.072 36.9802 14.976C37.7242 14.832 38.4322 14.736 39.1042 14.688C39.7762 14.616 40.3642 14.508 40.8682 14.364C41.3962 14.22 41.8042 14.004 42.0922 13.716C42.4042 13.404 42.5602 12.948 42.5602 12.348C42.5602 11.82 42.4282 11.388 42.1642 11.052C41.9242 10.716 41.6122 10.464 41.2282 10.296C40.8682 10.104 40.4602 9.984 40.0042 9.936C39.5482 9.864 39.1162 9.828 38.7082 9.828C37.5562 9.828 36.6082 10.068 35.8642 10.548C35.1202 11.028 34.7002 11.772 34.6042 12.78H30.5002C30.5722 11.58 30.8602 10.584 31.3642 9.792C31.8682 9 32.5042 8.364 33.2722 7.884C34.0642 7.404 34.9522 7.068 35.9362 6.876C36.9202 6.684 37.9282 6.588 38.9602 6.588C39.8722 6.588 40.7722 6.684 41.6602 6.876C42.5482 7.068 43.3402 7.38 44.0362 7.812C44.7562 8.244 45.3322 8.808 45.7642 9.504C46.1962 10.176 46.4122 11.004 46.4122 11.988V21.564ZM42.3082 16.38C41.6842 16.788 40.9162 17.04 40.0042 17.136C39.0922 17.208 38.1802 17.328 37.2682 17.496C36.8362 17.568 36.4162 17.676 36.0082 17.82C35.6002 17.94 35.2402 18.12 34.9282 18.36C34.6162 18.576 34.3642 18.876 34.1722 19.26C34.0042 19.62 33.9202 20.064 33.9202 20.592C33.9202 21.048 34.0522 21.432 34.3162 21.744C34.5802 22.056 34.8922 22.308 35.2522 22.5C35.6362 22.668 36.0442 22.788 36.4762 22.86C36.9322 22.932 37.3402 22.968 37.7002 22.968C38.1562 22.968 38.6482 22.908 39.1762 22.788C39.7042 22.668 40.1962 22.464 40.6522 22.176C41.1322 21.888 41.5282 21.528 41.8402 21.096C42.1522 20.64 42.3082 20.088 42.3082 19.44V16.38Z" fill="black"/>
<path d="M50.3281 7.092H54.1801V10.692H54.2521C54.3721 10.188 54.6001 9.696 54.9361 9.216C55.2961 8.736 55.7161 8.304 56.1961 7.92C56.7001 7.512 57.2521 7.188 57.8521 6.948C58.4521 6.708 59.0641 6.588 59.6881 6.588C60.1681 6.588 60.4921 6.6 60.6601 6.624C60.8521 6.648 61.0441 6.672 61.2361 6.696V10.656C60.9481 10.608 60.6481 10.572 60.3361 10.548C60.0481 10.5 59.7601 10.476 59.4721 10.476C58.7761 10.476 58.1161 10.62 57.4921 10.908C56.8921 11.172 56.3641 11.58 55.9081 12.132C55.4521 12.66 55.0921 13.32 54.8281 14.112C54.5641 14.904 54.4321 15.816 54.4321 16.848V25.704H50.3281V7.092Z" fill="black"/>
<path d="M63.7084 7.092V1.512H67.8124V7.092H71.5204V10.152H67.8124V20.088C67.8124 20.52 67.8244 20.892 67.8484 21.204C67.8964 21.516 67.9804 21.78 68.1004 21.996C68.2444 22.212 68.4484 22.38 68.7124 22.5C68.9764 22.596 69.3364 22.644 69.7924 22.644C70.0804 22.644 70.3684 22.644 70.6564 22.644C70.9444 22.62 71.2324 22.572 71.5204 22.5V25.668C71.0644 25.716 70.6204 25.764 70.1884 25.812C69.7564 25.86 69.3124 25.884 68.8564 25.884C67.7764 25.884 66.9004 25.788 66.2284 25.596C65.5804 25.38 65.0644 25.08 64.6804 24.696C64.3204 24.288 64.0684 23.784 63.9244 23.184C63.8044 22.584 63.7324 21.9 63.7084 21.132V10.152V7.092Z" fill="black"/>
<path d="M74.0807 0H78.1847V3.888H74.0807V0ZM74.0807 7.092H78.1847V25.704H74.0807V7.092Z" fill="black"/>
<path d="M82.1562 7.092H86.0443V9.828L86.1162 9.9C86.7402 8.868 87.5562 8.064 88.5642 7.488C89.5722 6.888 90.6883 6.588 91.9123 6.588C93.9523 6.588 95.5603 7.116 96.7363 8.172C97.9123 9.228 98.5003 10.812 98.5003 12.924V25.704H94.3962V14.004C94.3482 12.54 94.0363 11.484 93.4603 10.836C92.8843 10.164 91.9843 9.828 90.7603 9.828C90.0643 9.828 89.4403 9.96 88.8883 10.224C88.3363 10.464 87.8683 10.812 87.4843 11.268C87.1003 11.7 86.8003 12.216 86.5843 12.816C86.3683 13.416 86.2603 14.052 86.2603 14.724V25.704H82.1562V7.092Z" fill="black"/>
<path d="M115.108 14.76C115.06 14.112 114.916 13.488 114.676 12.888C114.46 12.288 114.148 11.772 113.74 11.34C113.356 10.884 112.876 10.524 112.3 10.26C111.748 9.972 111.124 9.828 110.428 9.828C109.708 9.828 109.048 9.96 108.448 10.224C107.872 10.464 107.368 10.812 106.936 11.268C106.528 11.7 106.192 12.216 105.928 12.816C105.688 13.416 105.556 14.064 105.532 14.76H115.108ZM105.532 17.46C105.532 18.18 105.628 18.876 105.82 19.548C106.036 20.22 106.348 20.808 106.756 21.312C107.164 21.816 107.68 22.224 108.304 22.536C108.928 22.824 109.672 22.968 110.536 22.968C111.736 22.968 112.696 22.716 113.416 22.212C114.16 21.684 114.712 20.904 115.072 19.872H118.96C118.744 20.88 118.372 21.78 117.844 22.572C117.316 23.364 116.68 24.036 115.936 24.588C115.192 25.116 114.352 25.512 113.416 25.776C112.504 26.064 111.544 26.208 110.536 26.208C109.072 26.208 107.776 25.968 106.648 25.488C105.52 25.008 104.56 24.336 103.768 23.472C103 22.608 102.412 21.576 102.004 20.376C101.62 19.176 101.428 17.856 101.428 16.416C101.428 15.096 101.632 13.848 102.04 12.672C102.472 11.472 103.072 10.428 103.84 9.54C104.632 8.628 105.58 7.908 106.684 7.38C107.788 6.852 109.036 6.588 110.428 6.588C111.892 6.588 113.2 6.9 114.352 7.524C115.528 8.124 116.5 8.928 117.268 9.936C118.036 10.944 118.588 12.108 118.924 13.428C119.284 14.724 119.38 16.068 119.212 17.46H105.532Z" fill="black"/>
</svg>
